<!-- Generator: Adobe Illustrator 21.0.0, SVG Export Plug-In  -->
<svg version="1.1"
	 xmlns="http://www.w3.org/2000/svg" xmlns:xlink="http://www.w3.org/1999/xlink" xmlns:a="http://ns.adobe.com/AdobeSVGViewerExtensions/3.0/"
	 x="0px" y="0px" width="109.665px" height="109.665px" viewBox="0 0 109.665 109.665"
	 style="overflow:scroll;enable-background:new 0 0 109.665 109.665;" xml:space="preserve">
<defs>
</defs>
<g>
	<g>
		<path d="M54.832,8c25.824,0,46.833,21.009,46.833,46.832c0,25.824-21.009,46.833-46.833,46.833C29.009,101.665,8,80.656,8,54.832
			C8,29.009,29.009,8,54.832,8 M54.832,0C24.549,0,0,24.549,0,54.832s24.549,54.833,54.832,54.833
			c30.283,0,54.833-24.55,54.833-54.833S85.116,0,54.832,0L54.832,0z"/>
	</g>
	<g>
		<path d="M54.832,21.387c-18.465,0-33.488,15.005-33.488,33.446c0,18.442,15.022,33.444,33.488,33.444
			c18.465,0,33.489-15.003,33.489-33.444C88.321,36.392,73.297,21.387,54.832,21.387L54.832,21.387z M76.867,37.173
			c3.821,4.734,6.142,10.713,6.249,17.229c-1.272-0.261-6.654-1.265-13.087-1.265c-2.075,0-4.26,0.104-6.45,0.375
			c-0.186-0.449-0.37-0.898-0.564-1.35c-0.568-1.335-1.18-2.662-1.814-3.967C71.101,44.115,75.878,38.454,76.867,37.173
			L76.867,37.173z M54.832,26.623c7.135,0,13.658,2.651,18.64,7.018c-0.789,1.076-5.066,6.422-14.612,10.029
			c-4.418-8.077-9.256-14.766-10.406-16.318C50.504,26.875,52.64,26.623,54.832,26.623L54.832,26.623z M42.679,29.365
			c0.975,1.343,5.819,8.103,10.353,16.116c-12.165,3.197-22.965,3.406-25.573,3.406h-0.277
			C29.054,40.255,34.886,33.082,42.679,29.365L42.679,29.365z M26.54,54.877c0-0.232,0.004-0.465,0.011-0.698
			c0.169,0.002,0.419,0.002,0.743,0.002c3.511,0,15.698-0.29,28.257-4.017c0.762,1.491,1.488,3.004,2.162,4.516
			c-0.317,0.091-0.63,0.183-0.941,0.284c-14.14,4.567-21.913,16.658-23.109,18.634C29.233,68.606,26.54,62.052,26.54,54.877
			L26.54,54.877z M54.832,83.13c-6.49,0-12.477-2.198-17.256-5.883c0.809-1.584,6.675-12.147,22.171-17.54
			c0.01-0.004,0.02-0.008,0.031-0.01c3.885,10.116,5.531,18.606,5.983,21.238C62.399,82.349,58.705,83.13,54.832,83.13L54.832,83.13
			z M70.857,78.15c-0.379-2.177-1.904-10.135-5.422-19.839c1.973-0.307,3.893-0.428,5.694-0.428c5.913,0,10.538,1.294,11.613,1.623
			C81.464,67.212,77.051,73.881,70.857,78.15L70.857,78.15z M70.857,78.15"/>
	</g>
</g>
</svg>