<!-- Generator: Adobe Illustrator 21.0.0, SVG Export Plug-In  -->
<svg version="1.1"
	 xmlns="http://www.w3.org/2000/svg" xmlns:xlink="http://www.w3.org/1999/xlink" xmlns:a="http://ns.adobe.com/AdobeSVGViewerExtensions/3.0/"
	 x="0px" y="0px" width="442px" height="442px" viewBox="0 0 442 442" style="overflow:scroll;enable-background:new 0 0 442 442;"
	 xml:space="preserve">
<style type="text/css">
	.st0{opacity:0.2;fill:#214393;}
</style>
<defs>
</defs>
<g>
	<rect class="st0" width="442" height="442"/>
	<g>
		<path d="M312.35,136.491c0,73.059-45.499,90.479-84.238,90.479h-42.9V47.833h37.44C268.41,47.833,312.35,62.133,312.35,136.491z
			 M209.912,207.47h20.02c28.079,0,56.158-11.96,56.158-70.979c0-60.579-29.379-68.898-57.979-68.898h-18.2V207.47z"/>
	</g>
	<g>
		<path d="M68.331,278.646c0,16.19-9.52,19.839-17.558,19.839h-8.38v-39.05h7.753C59.209,259.436,68.331,262.571,68.331,278.646z
			 M45.813,295.635H51c6.727,0,13.739-2.964,13.739-16.988c0-14.309-7.297-16.36-14.138-16.36h-4.789V295.635z"/>
		<path d="M99.167,284.86H79.271c0.399,8.096,4.162,11.459,9.292,11.459c3.25,0,5.416-1.026,8.038-2.965l1.54,2.109
			c-2.793,2.28-5.815,3.648-9.749,3.648c-7.867,0-12.655-5.7-12.655-15.277c0-9.521,4.618-15.791,11.915-15.791
			c7.753,0,11.629,5.644,11.629,14.423C99.281,283.379,99.224,284.291,99.167,284.86z M96.031,281.44
			c0-6.499-2.623-10.66-8.266-10.66c-4.674,0-8.152,3.42-8.494,11.515h16.76V281.44z"/>
		<path d="M113.7,298.485l-10.661-29.814h3.648l9.064,26.907l8.836-26.907h3.534l-10.318,29.814H113.7z"/>
		<path d="M155.482,284.86h-19.896c0.399,8.096,4.162,11.459,9.292,11.459c3.25,0,5.416-1.026,8.038-2.965l1.54,2.109
			c-2.793,2.28-5.815,3.648-9.749,3.648c-7.867,0-12.655-5.7-12.655-15.277c0-9.521,4.618-15.791,11.915-15.791
			c7.753,0,11.629,5.644,11.629,14.423C155.596,283.379,155.539,284.291,155.482,284.86z M152.347,281.44
			c0-6.499-2.623-10.66-8.266-10.66c-4.674,0-8.152,3.42-8.494,11.515h16.76V281.44z"/>
		<path d="M170.584,296.262c0.685,0,1.368-0.113,1.996-0.398l0.912,2.451c-1.026,0.456-2.28,0.798-3.535,0.798
			c-3.192,0-5.13-1.824-5.13-5.758v-36.826l3.306-0.399v37.226C168.133,295.293,168.817,296.262,170.584,296.262z"/>
		<path d="M203.59,283.492c0,9.635-4.789,15.62-12.655,15.62c-7.924,0-12.599-5.929-12.599-15.506s4.846-15.563,12.656-15.563
			C198.916,268.044,203.59,273.744,203.59,283.492z M181.871,283.606c0,8.38,3.363,12.713,9.064,12.713s9.178-4.275,9.178-12.827
			c0-8.38-3.364-12.655-9.121-12.655C185.348,270.837,181.871,275.056,181.871,283.606z"/>
		<path d="M236.422,283.436c0,9.406-3.934,15.677-11.344,15.677c-3.763,0-6.613-1.71-8.495-4.104v14.708l-3.307,0.456v-41.501h2.851
			l0.285,4.332c2.166-3.021,5.358-4.959,9.178-4.959C232.944,268.044,236.422,273.802,236.422,283.436z M232.888,283.436
			c0-8.494-2.736-12.655-7.924-12.655c-3.82,0-6.328,2.28-8.38,5.13v15.849c1.824,2.793,4.446,4.561,7.868,4.561
			C229.924,296.319,232.888,291.986,232.888,283.436z"/>
		<path d="M285.156,283.492c0,9.635-4.788,15.62-12.655,15.62c-7.924,0-12.599-5.929-12.599-15.506s4.846-15.563,12.656-15.563
			C280.482,268.044,285.156,273.744,285.156,283.492z M263.438,283.606c0,8.38,3.363,12.713,9.063,12.713
			c5.701,0,9.179-4.275,9.179-12.827c0-8.38-3.364-12.655-9.121-12.655C266.914,270.837,263.438,275.056,263.438,283.606z"/>
		<path d="M302.141,299.112c-4.503,0-7.297-2.679-7.297-7.867V271.35h-5.017v-2.679h5.017v-7.126l3.307-0.399v7.525h7.696
			l-0.399,2.679h-7.297v19.725c0,3.478,1.368,5.188,4.39,5.188c1.653,0,3.078-0.456,4.561-1.368l1.311,2.338
			C306.587,298.429,304.535,299.112,302.141,299.112z"/>
		<path d="M335.771,277.165v21.32h-3.307v-20.864c0-4.846-2.052-6.898-5.644-6.898c-4.047,0-6.783,2.509-9.234,6.157v21.605h-3.307
			v-41.957l3.307-0.399v17.502c2.394-3.364,5.586-5.587,9.861-5.587C332.808,268.044,335.771,271.521,335.771,277.165z"/>
		<path d="M368.604,284.86h-19.896c0.399,8.096,4.162,11.459,9.292,11.459c3.25,0,5.416-1.026,8.038-2.965l1.539,2.109
			c-2.793,2.28-5.814,3.648-9.748,3.648c-7.867,0-12.655-5.7-12.655-15.277c0-9.521,4.617-15.791,11.914-15.791
			c7.753,0,11.63,5.644,11.63,14.423C368.718,283.379,368.661,284.291,368.604,284.86z M365.468,281.44
			c0-6.499-2.622-10.66-8.266-10.66c-4.675,0-8.152,3.42-8.494,11.515h16.76V281.44z"/>
		<path d="M392.771,268.386l-0.627,3.136c-0.854-0.229-1.596-0.343-2.622-0.343c-4.161,0-6.385,2.965-7.981,9.064v18.242h-3.306
			v-29.814h2.851l0.284,6.67c1.597-4.903,4.276-7.297,8.438-7.297C390.946,268.044,391.973,268.158,392.771,268.386z"/>
		<path d="M415.741,271.35l-1.596,2.224c-2.565-1.881-4.789-2.793-7.811-2.793c-3.933,0-6.612,1.938-6.612,5.017
			c0,2.964,1.881,4.219,7.24,5.644c6.498,1.71,9.577,3.934,9.577,9.007c0,5.529-4.846,8.665-10.774,8.665
			c-4.846,0-8.095-1.653-10.66-3.819l1.881-2.166c2.451,2.052,5.073,3.192,8.722,3.192c4.333,0,7.354-2.053,7.354-5.644
			c0-3.648-1.653-4.96-7.867-6.67c-6.328-1.653-8.894-3.99-8.894-8.209c0-4.504,4.276-7.753,9.92-7.753
			C410.041,268.044,412.948,269.184,415.741,271.35z"/>
		<path d="M109.426,365.176l-0.741,2.337c-2.622-0.513-4.161-1.824-4.617-5.017c-2.109,3.421-5.302,5.017-9.292,5.017
			c-5.758,0-9.235-3.591-9.235-8.893c0-6.271,4.731-9.691,12.371-9.691h5.701v-2.851c0-4.731-1.938-6.841-6.898-6.841
			c-2.394,0-5.13,0.627-8.095,1.71l-0.855-2.508c3.307-1.312,6.271-1.995,9.406-1.995c6.784,0,9.748,3.363,9.748,9.463v14.366
			C106.918,363.579,107.83,364.549,109.426,365.176z M103.612,359.589v-8.209h-5.188c-5.986,0-9.35,2.337-9.35,7.069
			c0,4.104,2.337,6.385,6.271,6.385C99.108,364.834,101.73,362.952,103.612,359.589z"/>
		<path d="M133.479,336.786l-0.627,3.136c-0.855-0.229-1.596-0.343-2.622-0.343c-4.162,0-6.385,2.965-7.981,9.064v18.242h-3.306
			v-29.814h2.85l0.285,6.67c1.596-4.903,4.275-7.297,8.437-7.297C131.655,336.444,132.681,336.559,133.479,336.786z"/>
		<path d="M162.493,351.893c0,9.635-4.789,15.62-12.655,15.62c-7.924,0-12.599-5.929-12.599-15.506s4.846-15.563,12.655-15.563
			C157.818,336.444,162.493,342.145,162.493,351.893z M140.773,352.007c0,8.38,3.364,12.713,9.064,12.713s9.178-4.275,9.178-12.827
			c0-8.38-3.363-12.655-9.121-12.655C144.25,339.237,140.773,343.456,140.773,352.007z"/>
		<path d="M190.251,366.886l-0.171-5.302c-2.109,3.534-5.13,5.929-9.748,5.929c-5.359,0-8.437-3.249-8.437-9.121v-21.32h3.306
			v20.979c0,4.731,1.996,6.727,5.872,6.727c3.934,0,6.67-2.565,8.722-6.1v-21.605h3.307v29.814H190.251z"/>
		<path d="M226.675,345.565v21.32h-3.307v-20.864c0-4.902-1.996-6.898-5.644-6.898c-4.047,0-6.784,2.509-9.235,6.157v21.605h-3.306
			v-29.814h2.85l0.342,5.073c2.337-3.42,5.644-5.7,9.976-5.7C223.768,336.444,226.675,339.808,226.675,345.565z"/>
		<path d="M259.734,366.886h-2.85l-0.399-4.561c-1.768,2.964-4.617,5.188-8.95,5.188c-6.955,0-11.173-5.929-11.173-15.392
			c0-9.178,4.39-15.677,11.687-15.677c4.047,0,6.669,1.938,8.38,4.047v-15.962l3.306,0.399V366.886z M256.429,359.247v-15.563
			c-1.768-2.508-4.162-4.503-7.811-4.503c-5.244,0-8.778,4.503-8.722,12.884c0,8.322,3.136,12.712,8.152,12.712
			C251.981,364.776,254.376,362.781,256.429,359.247z"/>
		<path d="M285.039,378.516l-0.342-2.565c5.985-1.482,7.468-3.819,9.349-9.064h-1.14l-10.376-29.814h3.592l9.007,27.363
			l8.837-27.363h3.477L297.238,367C295.016,373.498,292.336,377.09,285.039,378.516z"/>
		<path d="M336.398,351.893c0,9.635-4.788,15.62-12.655,15.62c-7.924,0-12.599-5.929-12.599-15.506s4.846-15.563,12.655-15.563
			C331.724,336.444,336.398,342.145,336.398,351.893z M314.679,352.007c0,8.38,3.363,12.713,9.064,12.713
			c5.7,0,9.178-4.275,9.178-12.827c0-8.38-3.363-12.655-9.121-12.655C318.156,339.237,314.679,343.456,314.679,352.007z"/>
		<path d="M364.157,366.886l-0.172-5.302c-2.108,3.534-5.13,5.929-9.748,5.929c-5.358,0-8.437-3.249-8.437-9.121v-21.32h3.307
			v20.979c0,4.731,1.995,6.727,5.871,6.727c3.934,0,6.67-2.565,8.723-6.1v-21.605h3.306v29.814H364.157z"/>
	</g>
</g>
</svg>