<!-- Generator: Adobe Illustrator 21.0.0, SVG Export Plug-In  -->
<svg version="1.1"
	 xmlns="http://www.w3.org/2000/svg" xmlns:xlink="http://www.w3.org/1999/xlink" xmlns:a="http://ns.adobe.com/AdobeSVGViewerExtensions/3.0/"
	 x="0px" y="0px" width="442px" height="442px" viewBox="0 0 442 442" style="overflow:scroll;enable-background:new 0 0 442 442;"
	 xml:space="preserve">
<style type="text/css">
	.st0{opacity:0.2;fill:#214393;}
</style>
<defs>
</defs>
<g>
	<rect class="st0" width="442" height="442"/>
	<g>
		<path d="M186.551,181.99l-13.52,44.979h-24.96L205.53,47.833h31.2l57.199,179.137h-26l-13.52-44.979H186.551z M220.611,68.373
			l-28.081,93.598h55.9L220.611,68.373z"/>
	</g>
	<g>
		<path d="M20.305,287.825l-3.42,10.66h-3.478l13.055-39.05h4.275l12.998,39.05h-3.591l-3.42-10.66H20.305z M28.572,262.229
			l-7.297,22.689h14.537L28.572,262.229z"/>
		<path d="M67.559,271.35l-1.596,2.224c-2.565-1.881-4.789-2.793-7.81-2.793c-3.934,0-6.613,1.938-6.613,5.017
			c0,2.964,1.881,4.219,7.24,5.644c6.499,1.71,9.577,3.934,9.577,9.007c0,5.529-4.845,8.665-10.774,8.665
			c-4.846,0-8.095-1.653-10.661-3.819l1.881-2.166c2.451,2.052,5.074,3.192,8.722,3.192c4.333,0,7.354-2.053,7.354-5.644
			c0-3.648-1.653-4.96-7.867-6.67c-6.328-1.653-8.893-3.99-8.893-8.209c0-4.504,4.275-7.753,9.919-7.753
			C61.859,268.044,64.766,269.184,67.559,271.35z"/>
		<path d="M94.007,271.35l-1.596,2.224c-2.565-1.881-4.789-2.793-7.81-2.793c-3.934,0-6.613,1.938-6.613,5.017
			c0,2.964,1.881,4.219,7.24,5.644c6.499,1.71,9.577,3.934,9.577,9.007c0,5.529-4.846,8.665-10.774,8.665
			c-4.845,0-8.095-1.653-10.66-3.819l1.881-2.166c2.451,2.052,5.074,3.192,8.722,3.192c4.333,0,7.354-2.053,7.354-5.644
			c0-3.648-1.653-4.96-7.867-6.67c-6.328-1.653-8.893-3.99-8.893-8.209c0-4.504,4.275-7.753,9.919-7.753
			C88.306,268.044,91.214,269.184,94.007,271.35z"/>
		<path d="M121.708,298.485l-0.171-5.302c-2.109,3.534-5.131,5.929-9.748,5.929c-5.359,0-8.437-3.249-8.437-9.121v-21.32h3.306
			v20.979c0,4.731,1.995,6.727,5.872,6.727c3.933,0,6.669-2.565,8.722-6.1v-21.605h3.307v29.814H121.708z"/>
		<path d="M173.466,277.165v21.32h-3.307v-20.864c0-4.846-1.995-6.898-5.073-6.898c-3.592,0-6.1,2.509-8.38,6.157v21.605H153.4
			v-20.864c0-4.846-1.995-6.898-5.074-6.898c-3.591,0-6.157,2.509-8.38,6.157v21.605h-3.306v-29.814h2.85l0.285,5.073
			c2.223-3.42,5.358-5.7,9.178-5.7c3.819,0,6.499,2.223,7.411,5.929c2.223-3.535,5.416-5.929,9.349-5.929
			C170.502,268.044,173.466,271.521,173.466,277.165z"/>
		<path d="M206.296,284.86h-19.896c0.399,8.096,4.162,11.459,9.292,11.459c3.25,0,5.416-1.026,8.038-2.965l1.54,2.109
			c-2.793,2.28-5.815,3.648-9.749,3.648c-7.867,0-12.655-5.7-12.655-15.277c0-9.521,4.618-15.791,11.915-15.791
			c7.753,0,11.629,5.644,11.629,14.423C206.41,283.379,206.353,284.291,206.296,284.86z M203.161,281.44
			c0-6.499-2.623-10.66-8.266-10.66c-4.674,0-8.152,3.42-8.494,11.515h16.76V281.44z"/>
		<path d="M256.57,262.686l-2.052,2.108c-2.736-2.108-5.188-3.078-8.723-3.078c-6.156,0-12.655,4.731-12.655,17.103
			c0,11.971,4.846,17.387,12.542,17.387c3.192,0,5.758-0.684,8.209-2.053V280.3h-7.64l-0.398-2.85h11.401v18.47
			c-3.421,1.995-7.297,3.192-11.743,3.192c-9.521,0-15.962-6.784-15.962-20.294c0-13.396,8.037-20.01,16.189-20.01
			C250.414,258.809,253.378,260.12,256.57,262.686z"/>
		<path d="M289.915,283.492c0,9.635-4.789,15.62-12.655,15.62c-7.924,0-12.599-5.929-12.599-15.506s4.846-15.563,12.655-15.563
			C285.24,268.044,289.915,273.744,289.915,283.492z M268.195,283.606c0,8.38,3.363,12.713,9.064,12.713
			c5.7,0,9.178-4.275,9.178-12.827c0-8.38-3.363-12.655-9.121-12.655C271.673,270.837,268.195,275.056,268.195,283.606z"/>
		<path d="M320.866,298.485h-2.851l-0.399-4.561c-1.767,2.964-4.617,5.188-8.95,5.188c-6.954,0-11.173-5.929-11.173-15.392
			c0-9.178,4.39-15.677,11.687-15.677c4.047,0,6.67,1.938,8.38,4.047v-15.962l3.307,0.399V298.485z M317.559,290.847v-15.563
			c-1.768-2.508-4.161-4.503-7.81-4.503c-5.245,0-8.779,4.503-8.723,12.884c0,8.322,3.136,12.712,8.152,12.712
			C313.113,296.376,315.507,294.381,317.559,290.847z"/>
		<path d="M369.428,298.485l-6.612-26.736l-6.728,26.736h-4.39l-7.468-29.814h3.421l6.385,27.249l6.955-27.249h3.762l6.841,27.306
			l6.328-27.306h3.249l-7.297,29.814H369.428z"/>
		<path d="M392.74,257.953c0,1.312-0.97,2.395-2.509,2.395c-1.481,0-2.451-1.083-2.451-2.395c0-1.311,0.97-2.394,2.451-2.394
			C391.77,255.56,392.74,256.643,392.74,257.953z M388.635,298.485v-29.814h3.306v29.814H388.635z"/>
		<path d="M409.497,296.262c0.684,0,1.368-0.113,1.995-0.398l0.912,2.451c-1.026,0.456-2.28,0.798-3.534,0.798
			c-3.192,0-5.131-1.824-5.131-5.758v-36.826l3.307-0.399v37.226C407.046,295.293,407.729,296.262,409.497,296.262z"/>
		<path d="M425.685,296.262c0.684,0,1.368-0.113,1.995-0.398l0.912,2.451c-1.026,0.456-2.28,0.798-3.534,0.798
			c-3.192,0-5.131-1.824-5.131-5.758v-36.826l3.307-0.399v37.226C423.234,295.293,423.918,296.262,425.685,296.262z"/>
		<path d="M154.797,366.886l-0.171-5.302c-2.109,3.534-5.13,5.929-9.748,5.929c-5.359,0-8.437-3.249-8.437-9.121v-21.32h3.306
			v20.979c0,4.731,1.996,6.727,5.872,6.727c3.934,0,6.67-2.565,8.722-6.1v-21.605h3.307v29.814H154.797z"/>
		<path d="M186.546,339.75l-1.596,2.224c-2.565-1.881-4.789-2.793-7.81-2.793c-3.934,0-6.613,1.938-6.613,5.017
			c0,2.964,1.881,4.219,7.24,5.644c6.499,1.71,9.577,3.934,9.577,9.007c0,5.529-4.845,8.665-10.774,8.665
			c-4.846,0-8.095-1.653-10.661-3.819l1.881-2.166c2.451,2.052,5.074,3.192,8.722,3.192c4.333,0,7.354-2.053,7.354-5.644
			c0-3.648-1.653-4.96-7.867-6.67c-6.328-1.653-8.893-3.99-8.893-8.209c0-4.504,4.275-7.753,9.919-7.753
			C180.845,336.444,183.752,337.584,186.546,339.75z"/>
		<path d="M217.211,353.261h-19.896c0.399,8.096,4.162,11.459,9.292,11.459c3.25,0,5.416-1.026,8.038-2.965l1.54,2.109
			c-2.793,2.28-5.815,3.648-9.749,3.648c-7.867,0-12.655-5.7-12.655-15.277c0-9.521,4.618-15.791,11.915-15.791
			c7.753,0,11.629,5.644,11.629,14.423C217.325,351.779,217.268,352.691,217.211,353.261z M214.076,349.841
			c0-6.499-2.623-10.66-8.266-10.66c-4.674,0-8.152,3.42-8.494,11.515h16.76V349.841z"/>
		<path d="M240.064,378.516l-0.342-2.565c5.986-1.482,7.468-3.819,9.35-9.064h-1.141l-10.375-29.814h3.592l9.007,27.363
			l8.836-27.363h3.478L252.264,367C250.041,373.498,247.361,377.09,240.064,378.516z"/>
		<path d="M291.424,351.893c0,9.635-4.788,15.62-12.655,15.62c-7.924,0-12.599-5.929-12.599-15.506s4.846-15.563,12.656-15.563
			C286.75,336.444,291.424,342.145,291.424,351.893z M269.705,352.007c0,8.38,3.363,12.713,9.063,12.713
			c5.701,0,9.179-4.275,9.179-12.827c0-8.38-3.364-12.655-9.121-12.655C273.181,339.237,269.705,343.456,269.705,352.007z"/>
		<path d="M319.183,366.886l-0.172-5.302c-2.108,3.534-5.13,5.929-9.748,5.929c-5.358,0-8.437-3.249-8.437-9.121v-21.32h3.307
			v20.979c0,4.731,1.995,6.727,5.871,6.727c3.934,0,6.67-2.565,8.723-6.1v-21.605h3.306v29.814H319.183z"/>
	</g>
</g>
</svg>