<!-- Generator: Adobe Illustrator 21.0.0, SVG Export Plug-In  -->
<svg version="1.1"
	 xmlns="http://www.w3.org/2000/svg" xmlns:xlink="http://www.w3.org/1999/xlink" xmlns:a="http://ns.adobe.com/AdobeSVGViewerExtensions/3.0/"
	 x="0px" y="0px" width="11.824px" height="7.035px" viewBox="0 0 11.824 7.035"
	 style="overflow:scroll;enable-background:new 0 0 11.824 7.035;" xml:space="preserve">
<style type="text/css">
	.st0{fill-rule:evenodd;clip-rule:evenodd;fill:#010101;}
</style>
<defs>
</defs>
<path class="st0" d="M0.376,1.925l4.791,4.791c0.425,0.425,1.077,0.425,1.502,0l4.791-4.791c0.425-0.425,0.51-1.021,0.085-1.446
	l-0.17-0.198c-0.398-0.34-0.851-0.397-1.191-0.028C9.021,1.415,7.831,2.605,6.669,3.768c-0.425,0.425-1.077,0.425-1.502,0
	C3.976,2.605,2.813,1.415,1.623,0.253C1.283-0.116,0.83-0.059,0.461,0.281l-0.17,0.198C-0.162,0.905-0.049,1.5,0.376,1.925
	L0.376,1.925z"/>
</svg>