<!-- Generator: Adobe Illustrator 21.0.0, SVG Export Plug-In  -->
<svg version="1.1"
	 xmlns="http://www.w3.org/2000/svg" xmlns:xlink="http://www.w3.org/1999/xlink" xmlns:a="http://ns.adobe.com/AdobeSVGViewerExtensions/3.0/"
	 x="0px" y="0px" width="109.665px" height="109.665px" viewBox="0 0 109.665 109.665"
	 style="overflow:scroll;enable-background:new 0 0 109.665 109.665;" xml:space="preserve">
<style type="text/css">
	.st0{fill:#314A7E;}
</style>
<defs>
</defs>
<g>
	<g>
		<path class="st0" d="M54.833,8c25.824,0,46.833,21.009,46.833,46.832c0,25.824-21.009,46.833-46.833,46.833S8,80.656,8,54.832
			C8,29.009,29.009,8,54.833,8 M54.833,0C24.549,0,0,24.549,0,54.832s24.549,54.833,54.833,54.833s54.833-24.55,54.833-54.833
			S85.116,0,54.833,0L54.833,0z"/>
	</g>
	<path class="st0" d="M68.728,54.853h-9.087v32.409H46.168V54.853h-6.407V43.404h6.407v-7.408c0-5.297,2.516-13.594,13.592-13.594
		l9.979,0.042v11.112h-7.241c-1.188,0-2.858,0.594-2.858,3.121v6.738h10.264L68.728,54.853z M68.728,54.853"/>
</g>
</svg>