<!-- Generator: Adobe Illustrator 21.0.0, SVG Export Plug-In  -->
<svg version="1.1"
	 xmlns="http://www.w3.org/2000/svg" xmlns:xlink="http://www.w3.org/1999/xlink" xmlns:a="http://ns.adobe.com/AdobeSVGViewerExtensions/3.0/"
	 x="0px" y="0px" width="109.665px" height="109.666px" viewBox="0 0 109.665 109.666"
	 style="overflow:scroll;enable-background:new 0 0 109.665 109.666;" xml:space="preserve">
<style type="text/css">
	.st0{fill:#010002;}
</style>
<defs>
</defs>
<g>
	<g>
		<path d="M54.832,8c25.824,0,46.833,21.009,46.833,46.833c0,25.824-21.009,46.833-46.833,46.833C29.009,101.666,8,80.657,8,54.833
			C8,29.009,29.009,8,54.832,8 M54.832,0C24.549,0,0,24.549,0,54.833c0,30.284,24.549,54.833,54.832,54.833
			s54.833-24.55,54.833-54.833C109.665,24.549,85.115,0,54.832,0L54.832,0z"/>
	</g>
	<g>
		<g id="g4780_1_">
			<g id="g15_1_" transform="matrix(1.452588,0,0,1.452588,-115.17955,-97.147891)">
				<path id="path17-6_1_" class="st0" d="M133.598,113.272c-1.217-0.98-2.518-1.86-3.798-2.758
					c-2.555-1.794-4.89-1.933-6.796,0.953c-1.07,1.62-2.567,1.691-4.135,0.98c-4.318-1.958-7.652-4.975-9.606-9.364
					c-0.863-1.942-0.852-3.682,1.169-5.056c1.07-0.726,2.149-1.586,2.063-3.173c-0.112-2.069-5.137-8.985-7.122-9.714
					c-0.821-0.302-1.638-0.283-2.473-0.002c-4.653,1.564-6.58,5.39-4.734,9.921c5.505,13.516,15.194,22.926,28.531,28.67
					c0.761,0.326,1.606,0.457,2.034,0.574c3.036,0.031,6.593-2.895,7.621-5.799C137.341,115.711,135.251,114.603,133.598,113.272
					L133.598,113.272z"/>
				<path id="path19-1_1_" class="st0" d="M118.642,85.994c9.751,1.5,14.247,6.136,15.49,15.957
					c0.114,0.907-0.223,2.272,1.071,2.298c1.353,0.026,1.027-1.319,1.038-2.227c0.114-9.25-7.951-17.824-17.317-18.14
					c-0.707,0.102-2.168-0.487-2.26,1.096C116.603,86.046,117.835,85.87,118.642,85.994L118.642,85.994z"/>
				<path id="path21-2_1_" class="st0" d="M120.55,88.687c-0.938-0.113-2.175-0.555-2.395,0.747
					c-0.228,1.366,1.151,1.227,2.038,1.426c6.022,1.346,8.119,3.538,9.11,9.512c0.145,0.871-0.143,2.227,1.337,2.001
					c1.096-0.167,0.701-1.328,0.793-2.007C131.482,94.63,126.567,89.41,120.55,88.687L120.55,88.687z"/>
				<path id="path23_1_" class="st0" d="M121.103,93.377c-0.627,0.015-1.24,0.083-1.47,0.752c-0.346,1,0.381,1.238,1.121,1.357
					c2.471,0.397,3.77,1.853,4.018,4.317c0.067,0.669,0.491,1.21,1.137,1.134c0.895-0.107,0.976-0.903,0.949-1.66
					C126.901,96.509,123.773,93.311,121.103,93.377L121.103,93.377z"/>
			</g>
		</g>
	</g>
</g>
</svg>