<!-- Generator: Adobe Illustrator 21.0.0, SVG Export Plug-In  -->
<svg version="1.1"
	 xmlns="http://www.w3.org/2000/svg" xmlns:xlink="http://www.w3.org/1999/xlink" xmlns:a="http://ns.adobe.com/AdobeSVGViewerExtensions/3.0/"
	 x="0px" y="0px" width="442px" height="442px" viewBox="0 0 442 442" style="overflow:scroll;enable-background:new 0 0 442 442;"
	 xml:space="preserve">
<style type="text/css">
	.st0{opacity:0.2;fill:#214393;}
</style>
<defs>
</defs>
<g>
	<rect class="st0" width="442" height="442"/>
	<g>
		<path d="M281.189,176.01c0,37.959-29.38,50.959-70.979,50.959h-49.4V47.833h42.38c44.198,0,70.198,14.04,70.198,45.239
			c0,22.099-16.12,35.619-33.539,39.259C260.649,135.971,281.189,145.591,281.189,176.01z M185.511,123.751h27.04
			c20.02,0,35.619-9.88,35.619-28.859c0-22.1-15.859-27.56-42.379-27.56h-20.28V123.751z M255.19,176.01
			c0-25.219-18.72-33.279-40.3-33.279h-29.379v64.479h24.7C236.21,207.209,255.19,202.01,255.19,176.01z"/>
	</g>
	<g>
		<path d="M42.394,287.654c0,7.468-5.473,10.831-14.024,10.831H17.71v-39.05h8.722c8.893,0,14.138,3.136,14.138,9.748
			c0,5.017-3.079,7.867-7.183,8.608C38.119,278.305,42.394,280.928,42.394,287.654z M21.131,276.595h7.867
			c4.731,0,8.095-2.622,8.095-7.183c0-5.245-3.762-7.126-10.318-7.126h-5.644V276.595z M38.86,287.654
			c0-5.929-4.161-8.323-9.463-8.323h-8.266v16.304h7.24C34.698,295.635,38.86,293.469,38.86,287.654z"/>
		<path d="M72.546,284.86H52.651c0.399,8.096,4.162,11.459,9.292,11.459c3.25,0,5.416-1.026,8.038-2.965l1.54,2.109
			c-2.793,2.28-5.815,3.648-9.749,3.648c-7.867,0-12.655-5.7-12.655-15.277c0-9.521,4.618-15.791,11.915-15.791
			c7.753,0,11.629,5.644,11.629,14.423C72.66,283.379,72.603,284.291,72.546,284.86z M69.411,281.44
			c0-6.499-2.623-10.66-8.266-10.66c-4.674,0-8.152,3.42-8.494,11.515h16.76V281.44z"/>
		<path d="M87.65,296.262c0.684,0,1.368-0.113,1.995-0.398l0.912,2.451c-1.026,0.456-2.28,0.798-3.535,0.798
			c-3.192,0-5.13-1.824-5.13-5.758v-36.826l3.306-0.399v37.226C85.198,295.293,85.882,296.262,87.65,296.262z"/>
		<path d="M102.469,257.953c0,1.312-0.969,2.395-2.509,2.395c-1.482,0-2.451-1.083-2.451-2.395c0-1.311,0.969-2.394,2.451-2.394
			C101.5,255.56,102.469,256.643,102.469,257.953z M98.365,298.485v-29.814h3.306v29.814H98.365z"/>
		<path d="M134.789,284.86h-19.896c0.399,8.096,4.162,11.459,9.292,11.459c3.25,0,5.416-1.026,8.038-2.965l1.54,2.109
			c-2.793,2.28-5.815,3.648-9.749,3.648c-7.867,0-12.655-5.7-12.655-15.277c0-9.521,4.618-15.791,11.915-15.791
			c7.753,0,11.629,5.644,11.629,14.423C134.904,283.379,134.846,284.291,134.789,284.86z M131.654,281.44
			c0-6.499-2.623-10.66-8.266-10.66c-4.674,0-8.152,3.42-8.494,11.515h16.76V281.44z"/>
		<path d="M149.323,298.485l-10.661-29.814h3.648l9.064,26.907l8.836-26.907h3.534l-10.318,29.814H149.323z"/>
		<path d="M191.105,284.86h-19.896c0.399,8.096,4.162,11.459,9.292,11.459c3.25,0,5.416-1.026,8.038-2.965l1.54,2.109
			c-2.793,2.28-5.815,3.648-9.749,3.648c-7.867,0-12.655-5.7-12.655-15.277c0-9.521,4.618-15.791,11.915-15.791
			c7.753,0,11.629,5.644,11.629,14.423C191.219,283.379,191.162,284.291,191.105,284.86z M187.969,281.44
			c0-6.499-2.623-10.66-8.266-10.66c-4.674,0-8.152,3.42-8.494,11.515h16.76V281.44z"/>
		<path d="M223.934,299.112c-4.504,0-7.297-2.679-7.297-7.867V271.35h-5.017v-2.679h5.017v-7.126l3.307-0.399v7.525h7.695
			l-0.398,2.679h-7.297v19.725c0,3.478,1.368,5.188,4.39,5.188c1.653,0,3.078-0.456,4.561-1.368l1.311,2.338
			C228.381,298.429,226.329,299.112,223.934,299.112z"/>
		<path d="M257.565,277.165v21.32h-3.306v-20.864c0-4.846-2.053-6.898-5.644-6.898c-4.048,0-6.784,2.509-9.235,6.157v21.605h-3.307
			v-41.957l3.307-0.399v17.502c2.395-3.364,5.587-5.587,9.862-5.587C254.601,268.044,257.565,271.521,257.565,277.165z"/>
		<path d="M290.398,296.775l-0.741,2.337c-2.623-0.513-4.162-1.824-4.618-5.017c-2.109,3.421-5.302,5.017-9.292,5.017
			c-5.758,0-9.235-3.591-9.235-8.893c0-6.271,4.731-9.691,12.371-9.691h5.7v-2.851c0-4.731-1.938-6.841-6.897-6.841
			c-2.395,0-5.131,0.627-8.095,1.71l-0.855-2.508c3.307-1.312,6.271-1.995,9.406-1.995c6.783,0,9.748,3.363,9.748,9.463v14.366
			C287.889,295.179,288.802,296.148,290.398,296.775z M284.583,291.188v-8.209h-5.188c-5.985,0-9.349,2.337-9.349,7.069
			c0,4.104,2.337,6.385,6.271,6.385C280.08,296.434,282.702,294.552,284.583,291.188z"/>
		<path d="M307.211,299.112c-4.504,0-7.297-2.679-7.297-7.867V271.35h-5.017v-2.679h5.017v-7.126l3.306-0.399v7.525h7.696
			l-0.399,2.679h-7.297v19.725c0,3.478,1.369,5.188,4.39,5.188c1.653,0,3.079-0.456,4.561-1.368l1.312,2.338
			C311.657,298.429,309.604,299.112,307.211,299.112z"/>
		<path d="M359.993,262.686l-2.052,2.108c-2.736-2.108-5.188-3.078-8.722-3.078c-6.157,0-12.656,4.731-12.656,17.103
			c0,11.971,4.846,17.387,12.542,17.387c3.192,0,5.758-0.684,8.209-2.053V280.3h-7.639l-0.399-2.85h11.401v18.47
			c-3.421,1.995-7.297,3.192-11.743,3.192c-9.521,0-15.962-6.784-15.962-20.294c0-13.396,8.038-20.01,16.189-20.01
			C353.837,258.809,356.802,260.12,359.993,262.686z"/>
		<path d="M393.339,283.492c0,9.635-4.788,15.62-12.655,15.62c-7.924,0-12.599-5.929-12.599-15.506s4.846-15.563,12.655-15.563
			C388.664,268.044,393.339,273.744,393.339,283.492z M371.619,283.606c0,8.38,3.363,12.713,9.064,12.713
			c5.7,0,9.178-4.275,9.178-12.827c0-8.38-3.363-12.655-9.121-12.655C375.096,270.837,371.619,275.056,371.619,283.606z"/>
		<path d="M424.29,298.485h-2.851l-0.399-4.561c-1.767,2.964-4.617,5.188-8.95,5.188c-6.954,0-11.173-5.929-11.173-15.392
			c0-9.178,4.39-15.677,11.687-15.677c4.047,0,6.67,1.938,8.38,4.047v-15.962l3.307,0.399V298.485z M420.983,290.847v-15.563
			c-1.768-2.508-4.162-4.503-7.811-4.503c-5.244,0-8.778,4.503-8.722,12.884c0,8.322,3.136,12.712,8.152,12.712
			C416.537,296.376,418.93,294.381,420.983,290.847z"/>
		<path d="M123.673,326.354c0,1.312-0.969,2.395-2.508,2.395c-1.482,0-2.452-1.083-2.452-2.395c0-1.311,0.969-2.394,2.452-2.394
			C122.704,323.96,123.673,325.043,123.673,326.354z M119.569,366.886v-29.814h3.307v29.814H119.569z"/>
		<path d="M151.775,339.75l-1.596,2.224c-2.565-1.881-4.789-2.793-7.81-2.793c-3.934,0-6.613,1.938-6.613,5.017
			c0,2.964,1.881,4.219,7.24,5.644c6.499,1.71,9.577,3.934,9.577,9.007c0,5.529-4.845,8.665-10.774,8.665
			c-4.846,0-8.095-1.653-10.661-3.819l1.881-2.166c2.451,2.052,5.074,3.192,8.722,3.192c4.333,0,7.354-2.053,7.354-5.644
			c0-3.648-1.653-4.96-7.867-6.67c-6.328-1.653-8.893-3.99-8.893-8.209c0-4.504,4.275-7.753,9.919-7.753
			C146.074,336.444,148.982,337.584,151.775,339.75z"/>
		<path d="M200.453,351.836c0,9.577-4.162,15.677-11.344,15.677c-3.763,0-6.67-1.881-8.551-4.39l-0.342,3.763h-2.908v-41.957
			l3.307-0.399v16.703c2.109-2.85,5.017-4.788,8.95-4.788C196.406,336.444,200.453,341.917,200.453,351.836z M196.918,351.836
			c0-8.779-2.964-12.655-8.038-12.655c-3.876,0-6.271,2.28-8.266,5.13v15.678c1.824,2.793,4.446,4.788,7.867,4.788
			C193.783,364.776,196.918,360.501,196.918,351.836z"/>
		<path d="M214.53,326.354c0,1.312-0.969,2.395-2.509,2.395c-1.482,0-2.451-1.083-2.451-2.395c0-1.311,0.969-2.394,2.451-2.394
			C213.56,323.96,214.53,325.043,214.53,326.354z M210.425,366.886v-29.814h3.306v29.814H210.425z"/>
		<path d="M239.724,338.554c3.135,1.481,5.073,3.99,5.073,8.095c0,5.814-4.048,9.805-10.774,9.805c-1.425,0-2.736-0.171-3.876-0.569
			c-1.426,0.798-2.28,2.052-2.28,3.42c0,1.768,1.14,3.078,4.731,3.078h4.846c5.929,0,9.577,3.192,9.577,7.64
			c0,5.358-4.219,8.551-12.941,8.551c-9.007,0-12.427-2.622-12.427-8.551h3.078c0.057,4.161,2.224,5.814,9.349,5.814
			c6.955,0,9.577-2.109,9.577-5.644c0-3.192-2.508-4.96-6.727-4.96h-4.846c-4.959,0-7.354-2.395-7.354-5.244
			c0-1.996,1.197-3.763,3.249-5.074c-3.42-1.767-5.017-4.39-5.017-8.38c0-5.985,4.39-10.09,10.945-10.09
			c7.981,0.114,10.147-0.741,13.055-1.938l1.026,3.192C245.937,338.269,243.315,338.496,239.724,338.554z M226.385,346.534
			c0,4.789,2.964,7.525,7.524,7.525c4.846,0,7.525-2.736,7.525-7.468c0-4.675-2.451-7.582-7.525-7.582
			C228.836,339.01,226.385,342.145,226.385,346.534z"/>
		<path d="M268.394,338.554c3.136,1.481,5.073,3.99,5.073,8.095c0,5.814-4.047,9.805-10.773,9.805c-1.426,0-2.736-0.171-3.877-0.569
			c-1.425,0.798-2.28,2.052-2.28,3.42c0,1.768,1.141,3.078,4.731,3.078h4.846c5.929,0,9.577,3.192,9.577,7.64
			c0,5.358-4.219,8.551-12.94,8.551c-9.007,0-12.428-2.622-12.428-8.551h3.078c0.058,4.161,2.224,5.814,9.35,5.814
			c6.955,0,9.577-2.109,9.577-5.644c0-3.192-2.509-4.96-6.727-4.96h-4.846c-4.96,0-7.354-2.395-7.354-5.244
			c0-1.996,1.197-3.763,3.25-5.074c-3.421-1.767-5.017-4.39-5.017-8.38c0-5.985,4.39-10.09,10.945-10.09
			c7.98,0.114,10.147-0.741,13.055-1.938l1.025,3.192C274.608,338.269,271.986,338.496,268.394,338.554z M255.054,346.534
			c0,4.789,2.965,7.525,7.525,7.525c4.846,0,7.524-2.736,7.524-7.468c0-4.675-2.451-7.582-7.524-7.582
			C257.506,339.01,255.054,342.145,255.054,346.534z"/>
		<path d="M303.337,353.261h-19.896c0.398,8.096,4.161,11.459,9.292,11.459c3.249,0,5.416-1.026,8.038-2.965l1.539,2.109
			c-2.794,2.28-5.814,3.648-9.748,3.648c-7.867,0-12.656-5.7-12.656-15.277c0-9.521,4.618-15.791,11.915-15.791
			c7.753,0,11.629,5.644,11.629,14.423C303.45,351.779,303.393,352.691,303.337,353.261z M300.201,349.841
			c0-6.499-2.622-10.66-8.266-10.66c-4.675,0-8.152,3.42-8.494,11.515h16.76V349.841z"/>
		<path d="M327.503,336.786l-0.627,3.136c-0.854-0.229-1.596-0.343-2.622-0.343c-4.161,0-6.385,2.965-7.981,9.064v18.242h-3.306
			v-29.814h2.851l0.284,6.67c1.597-4.903,4.276-7.297,8.438-7.297C325.678,336.444,326.705,336.559,327.503,336.786z"/>
	</g>
</g>
</svg>