<!-- Generator: Adobe Illustrator 20.1.0, SVG Export Plug-In  -->
<svg version="1.1"
	 xmlns="http://www.w3.org/2000/svg" xmlns:xlink="http://www.w3.org/1999/xlink" xmlns:a="http://ns.adobe.com/AdobeSVGViewerExtensions/3.0/"
	 x="0px" y="0px" width="88.051px" height="95.713px" viewBox="0 0 88.051 95.713"
	 style="overflow:scroll;enable-background:new 0 0 88.051 95.713;" xml:space="preserve">
<defs>
</defs>
<path d="M39.959,94.484c0.029,0.018,0.057,0.032,0.083,0.05c0.376,0.242,0.772,0.454,1.19,0.626
	c0.031,0.013,0.065,0.022,0.096,0.036c0.409,0.161,0.832,0.29,1.273,0.376c0.023,0.005,0.049,0.007,0.075,0.012
	c0.436,0.081,0.885,0.128,1.344,0.129c0.002,0,0.005,0,0.008,0c0.462-0.001,0.908-0.049,1.346-0.129
	c0.026-0.004,0.049-0.007,0.075-0.012c0.441-0.086,0.864-0.215,1.271-0.376c0.033-0.013,0.064-0.023,0.099-0.036
	c0.417-0.172,0.813-0.384,1.186-0.626c0.029-0.018,0.058-0.032,0.083-0.05c0.407-0.27,0.785-0.577,1.127-0.92
	c0.003-0.001,0.003-0.001,0.003-0.002l36.681-36.68c2.869-2.87,2.869-7.518,0-10.388c-2.869-2.869-7.521-2.869-10.387,0
	L51.371,70.634V7.345C51.371,3.289,48.082,0,44.025,0c-4.057,0-7.345,3.289-7.345,7.345v63.289L12.539,46.494
	c-2.87-2.869-7.519-2.869-10.387,0C0.718,47.928,0,49.808,0,51.688c0,1.88,0.718,3.76,2.152,5.194l36.68,36.68
	c0,0.001,0,0.001,0,0.002C39.177,93.907,39.555,94.214,39.959,94.484z"/>
</svg>