<!-- Generator: Adobe Illustrator 21.0.0, SVG Export Plug-In  -->
<svg version="1.1"
	 xmlns="http://www.w3.org/2000/svg" xmlns:xlink="http://www.w3.org/1999/xlink" xmlns:a="http://ns.adobe.com/AdobeSVGViewerExtensions/3.0/"
	 x="0px" y="0px" width="127.559px" height="22.83px" viewBox="0 0 127.559 22.83"
	 style="overflow:scroll;enable-background:new 0 0 127.559 22.83;" xml:space="preserve">
<style type="text/css">
	.st0{fill:#1F9F49;}
</style>
<defs>
</defs>
<g>
	<path class="st0" d="M11.198,0c1.528,0,2.968,0.294,4.32,0.882c1.352,0.589,2.531,1.387,3.539,2.396
		c1.008,1.01,1.8,2.196,2.376,3.561c0.577,1.364,0.864,2.812,0.864,4.343s-0.288,2.979-0.864,4.343
		c-0.576,1.364-1.368,2.551-2.376,3.561c-1.007,1.01-2.187,1.809-3.539,2.396c-1.352,0.589-2.791,0.882-4.32,0.882
		c-1.551,0-3.008-0.294-4.37-0.882c-1.363-0.587-2.548-1.386-3.556-2.396s-1.805-2.197-2.392-3.561S0,12.713,0,11.182
		s0.293-2.979,0.88-4.343c0.587-1.365,1.385-2.551,2.392-3.561S5.466,1.47,6.828,0.882C8.191,0.294,9.647,0,11.198,0z M20.4,11.182
		c0-1.287-0.239-2.49-0.717-3.611c-0.478-1.12-1.133-2.097-1.967-2.929c-0.834-0.832-1.812-1.492-2.933-1.98
		C13.66,2.175,12.465,1.93,11.198,1.93c-1.289,0-2.5,0.244-3.634,0.732C6.431,3.15,5.447,3.81,4.614,4.643
		C3.78,5.474,3.119,6.451,2.63,7.571c-0.489,1.121-0.733,2.324-0.733,3.611s0.244,2.49,0.733,3.611s1.15,2.096,1.984,2.929
		c0.834,0.832,1.817,1.492,2.95,1.98c1.134,0.489,2.345,0.733,3.634,0.733c1.267,0,2.461-0.244,3.584-0.733
		c1.122-0.487,2.1-1.148,2.933-1.98c0.834-0.832,1.489-1.808,1.967-2.929C20.161,13.672,20.4,12.469,20.4,11.182z"/>
	<path class="st0" d="M26.657,22.131V4.626h5.841c0.734,0,1.424,0.145,2.069,0.433C35.213,5.347,35.78,5.74,36.27,6.24
		c0.49,0.499,0.873,1.087,1.152,1.763c0.278,0.678,0.418,1.393,0.418,2.147c0,0.754-0.139,1.464-0.416,2.129
		c-0.278,0.666-0.655,1.243-1.132,1.731c-0.477,0.488-1.037,0.87-1.681,1.148s-1.331,0.416-2.063,0.416h-3.993v6.556H26.657z
		 M28.554,6.489v7.155h3.976c0.463,0,0.905-0.093,1.325-0.281c0.42-0.187,0.784-0.436,1.094-0.745
		c0.309-0.309,0.552-0.679,0.728-1.11c0.177-0.43,0.266-0.889,0.266-1.375c0-0.507-0.089-0.982-0.266-1.424
		c-0.177-0.441-0.42-0.827-0.728-1.159c-0.309-0.331-0.674-0.591-1.094-0.779s-0.873-0.282-1.358-0.282H28.554z"/>
	<path class="st0" d="M40.601,22.131V4.626h10.317v1.864h-8.42v4.46h5.657v1.864h-5.657v7.388h8.985v1.93H40.601z"/>
	<path class="st0" d="M66.625,4.659V22.83L54.91,8.886v13.245H53.28V4.226l11.682,13.944V4.659H66.625z"/>
	<path class="st0" d="M95.178,20.201v1.93h-14.31V0.199h1.897v20.001H95.178z"/>
	<path class="st0" d="M99.138,4.626v17.505h-1.897V4.626H99.138z"/>
	<path class="st0" d="M114.546,6.489h-8.187v4.526h6.457v1.864h-6.457v9.252h-1.897V4.626h10.084V6.489z"/>
	<path class="st0" d="M116.677,22.131V4.626h10.317v1.864h-8.42v4.46h5.657v1.864h-5.657v7.388h8.985v1.93H116.677z"/>
</g>
</svg>